<svg width="42" height="61" viewBox="0 0 42 61" fill="none" xmlns="http://www.w3.org/2000/svg">
<path d="M0.828 57V42.6H3.672C4.74 42.6 5.514 42.828 5.994 43.284C6.486 43.74 6.75 44.484 6.786 45.516C6.81 46.176 6.822 46.776 6.822 47.316C6.822 47.844 6.81 48.402 6.786 48.99C6.75 50.022 6.486 50.766 5.994 51.222C5.514 51.678 4.734 51.906 3.654 51.906H2.79V57H0.828ZM2.79 50.178H3.654C4.41 50.178 4.806 49.812 4.842 49.08C4.866 48.504 4.878 47.898 4.878 47.262C4.878 46.614 4.866 46.002 4.842 45.426C4.806 44.694 4.416 44.328 3.672 44.328H2.79V50.178ZM8.16019 57V42.6H11.0042C12.0722 42.6 12.8462 42.828 13.3262 43.284C13.8182 43.74 14.0822 44.484 14.1182 45.516C14.1422 46.176 14.1542 46.758 14.1542 47.262C14.1542 47.766 14.1422 48.312 14.1182 48.9C14.0702 50.244 13.6262 51.108 12.7862 51.492L14.3522 57H12.2822L10.9502 51.816H10.1222V57H8.16019ZM10.1222 50.088H10.9862C11.7422 50.088 12.1382 49.728 12.1742 49.008C12.2342 47.808 12.2342 46.614 12.1742 45.426C12.1382 44.694 11.7482 44.328 11.0042 44.328H10.1222V50.088ZM18.5892 57.144C17.5092 57.144 16.7292 56.916 16.2492 56.46C15.7812 56.004 15.5352 55.242 15.5112 54.174C15.4512 51.258 15.4512 48.336 15.5112 45.408C15.5352 44.352 15.7812 43.596 16.2492 43.14C16.7292 42.684 17.5092 42.456 18.5892 42.456C19.6692 42.456 20.4432 42.684 20.9112 43.14C21.3792 43.596 21.6312 44.352 21.6672 45.408C21.7392 48.348 21.7392 51.27 21.6672 54.174C21.6312 55.242 21.3792 56.004 20.9112 56.46C20.4432 56.916 19.6692 57.144 18.5892 57.144ZM18.5892 55.542C19.3212 55.542 19.6992 55.2 19.7232 54.516C19.7592 53.52 19.7772 52.482 19.7772 51.402C19.7892 50.322 19.7892 49.242 19.7772 48.162C19.7652 47.082 19.7472 46.05 19.7232 45.066C19.6992 44.394 19.3212 44.058 18.5892 44.058C17.8452 44.058 17.4672 44.394 17.4552 45.066C17.4192 46.05 17.3952 47.082 17.3832 48.162C17.3712 49.242 17.3712 50.322 17.3832 51.402C17.3952 52.482 17.4192 53.52 17.4552 54.516C17.4672 55.2 17.8452 55.542 18.5892 55.542ZM23.2289 57V42.6H26.5589L27.5309 48.27L27.9989 55.254H28.3949L28.8269 48.27L29.8169 42.6H33.1289V57H31.1849V52.644L31.5269 44.328H31.1129L30.2129 52.806L29.3669 56.964H26.9909L26.1629 52.806L25.2629 44.328H24.8489L25.1909 52.698V57H23.2289ZM37.8766 57.144C36.7966 57.144 36.0166 56.916 35.5366 56.46C35.0686 56.004 34.8226 55.242 34.7986 54.174C34.7386 51.258 34.7386 48.336 34.7986 45.408C34.8226 44.352 35.0686 43.596 35.5366 43.14C36.0166 42.684 36.7966 42.456 37.8766 42.456C38.9566 42.456 39.7306 42.684 40.1986 43.14C40.6666 43.596 40.9186 44.352 40.9546 45.408C41.0266 48.348 41.0266 51.27 40.9546 54.174C40.9186 55.242 40.6666 56.004 40.1986 56.46C39.7306 56.916 38.9566 57.144 37.8766 57.144ZM37.8766 55.542C38.6086 55.542 38.9866 55.2 39.0106 54.516C39.0466 53.52 39.0646 52.482 39.0646 51.402C39.0766 50.322 39.0766 49.242 39.0646 48.162C39.0526 47.082 39.0346 46.05 39.0106 45.066C38.9866 44.394 38.6086 44.058 37.8766 44.058C37.1326 44.058 36.7546 44.394 36.7426 45.066C36.7066 46.05 36.6826 47.082 36.6706 48.162C36.6586 49.242 36.6586 50.322 36.6706 51.402C36.6826 52.482 36.7066 53.52 36.7426 54.516C36.7546 55.2 37.1326 55.542 37.8766 55.542Z" fill="white"/>
<path d="M27.2001 12.0001L28.7001 16.1001H31.7001C32.0001 16.1001 32.3001 16.3001 32.4001 16.6001C32.5001 16.9001 32.4001 17.2001 32.2001 17.4001L29.6001 19.2001L31.0001 22.5001C31.1001 22.8001 31.0001 23.2001 30.8001 23.4001C30.5001 23.6001 30.2001 23.7001 29.9001 23.5001L26.4001 21.5001L22.9001 23.5001C22.6001 23.7001 22.2001 23.6001 22.0001 23.4001C21.7001 23.2001 21.7001 22.8001 21.8001 22.5001L23.2001 19.2001L20.6001 17.4001C20.4001 17.2001 20.3001 16.9001 20.4001 16.6001C20.5001 16.3001 20.8001 16.1001 21.1001 16.1001H24.1001L25.6001 12.0001C25.7001 11.7001 26.0001 11.6001 26.3001 11.6001C26.8001 11.6001 27.1001 11.7001 27.2001 12.0001Z" stroke="white" stroke-width="1.5" stroke-linecap="round" stroke-linejoin="round"/>
<path d="M14.5 10.8H21.3" stroke="white" stroke-width="1.5" stroke-linecap="round" stroke-linejoin="round"/>
<path d="M14.5 14.6001H16.7" stroke="white" stroke-width="1.5" stroke-linecap="round" stroke-linejoin="round"/>
<path d="M14.5 18.3H16.7" stroke="white" stroke-width="1.5" stroke-linecap="round" stroke-linejoin="round"/>
<path d="M18.3 23.6H11.5C10.7 23.6 10 22.9 10 22.1V6.29999C10 5.49999 10.7 4.79999 11.5 4.79999H15.3C15.3 2.69999 17 1 19.1 1C21.2 1 22.9 2.69999 22.9 4.79999H26.7C27.5 4.79999 28.2 5.49999 28.2 6.29999V8.5" stroke="white" stroke-width="1.5" stroke-linecap="round" stroke-linejoin="round"/>
<path d="M19.0001 4.1001C19.2001 4.1001 19.4001 4.30012 19.4001 4.50012C19.4001 4.70012 19.2001 4.90009 19.0001 4.90009C18.8001 4.90009 18.6001 4.70012 18.6001 4.50012C18.7001 4.20012 18.8001 4.1001 19.0001 4.1001Z" stroke="white" stroke-width="1.5" stroke-linecap="round" stroke-linejoin="round"/>
</svg>
