<svg width="25" height="25" viewBox="0 0 25 25" fill="none" xmlns="http://www.w3.org/2000/svg">
<path d="M5.5 2.5H2.5C1.7 2.5 1 3.2 1 4V22C1 22.8 1.7 23.5 2.5 23.5H22C22.8 23.5 23.5 22.8 23.5 22V4C23.5 3.2 22.8 2.5 22 2.5H11.5" stroke="white" stroke-width="1.5" stroke-linecap="round" stroke-linejoin="round"/>
<path d="M11.5 11.5L8.5 9.2998L5.5 11.5V1.7002C5.5 1.5002 5.59998 1.3002 5.69998 1.2002C5.79998 1.1002 5.99998 1 6.19998 1H10.7C11.1 1 11.5 1.2998 11.5 1.7998V11.5Z" stroke="white" stroke-width="1.5" stroke-linecap="round" stroke-linejoin="round"/>
<path d="M5.5 19H16" stroke="white" stroke-width="1.5" stroke-linecap="round" stroke-linejoin="round"/>
<path d="M5.5 14.5H19" stroke="white" stroke-width="1.5" stroke-linecap="round" stroke-linejoin="round"/>
<path d="M19 10H14.5" stroke="white" stroke-width="1.5" stroke-linecap="round" stroke-linejoin="round"/>
</svg>
