<svg width="23" height="23" viewBox="0 0 23 23" fill="none" xmlns="http://www.w3.org/2000/svg">
<path d="M17.5 18.9H7.59999C6.89999 18.9 6.19999 18.4001 6.09999 17.7001L3.5 2.20007C3.4 1.50007 2.8 1 2 1H1" stroke="white" stroke-width="1.5" stroke-linecap="round" stroke-linejoin="round"/>
<path d="M15.6 21.2002C15.4 21.2002 15.2 21.4002 15.2 21.6002C15.2 21.8002 15.4 22.0001 15.6 22.0001C15.8 22.0001 16 21.8002 16 21.6002C16 21.3002 15.8 21.2002 15.6 21.2002Z" stroke="white" stroke-width="1.5" stroke-linecap="round" stroke-linejoin="round"/>
<path d="M8.09999 21.2002C7.89999 21.2002 7.7 21.4002 7.7 21.6002C7.7 21.8002 7.89999 22.0001 8.09999 22.0001C8.29999 22.0001 8.5 21.8002 8.5 21.6002C8.5 21.3002 8.29999 21.2002 8.09999 21.2002Z" stroke="white" stroke-width="1.5" stroke-linecap="round" stroke-linejoin="round"/>
<path d="M5.49999 14.3999H17.6C19 14.3999 20.2 13.5 20.5 12.1L21.9 6.29993C22 6.09993 21.9 5.79995 21.8 5.69995C21.7 5.49995 21.4 5.3999 21.2 5.3999H3.99999" stroke="white" stroke-width="1.5" stroke-linecap="round" stroke-linejoin="round"/>
</svg>
