<svg width="142" height="37" viewBox="0 0 142 37" fill="none" xmlns="http://www.w3.org/2000/svg">
<g clip-path="url(#clip0_1101_47)">
<path d="M0.131386 16.323C4.09582 14.0243 9.10564 11.9238 14.721 10.3555C21.9529 8.3342 28.7736 7.59816 34.029 7.99449C30.6587 3.17062 25.0377 0 18.6626 0C9.09993 0 1.22246 7.13389 0.131386 16.323ZM10.7108 13.1184C15.5836 11.7539 20.2678 11.0972 24.2208 11.0972C30.236 11.0972 34.5774 12.6145 35.3886 15.4681C36.7367 20.2014 27.8653 26.82 15.5778 30.2511C15.1151 30.3813 14.6524 30.5002 14.1954 30.6191L14.3382 31.123C16.2576 30.755 18.2227 30.3021 20.2278 29.7415C26.8771 27.8845 32.6695 25.28 36.8796 22.4888C35.0516 30.789 27.5911 37 18.6626 37C8.35731 37 0 28.7168 0 18.5028C0 18.1065 0.0171373 17.7102 0.0399871 17.3195L0.0856867 17.2969V17.3025C3.119 15.6889 6.71784 14.2282 10.7108 13.1184Z" fill="#DA1A32"/>
<path d="M130.461 18.6556C129.587 20.875 125.571 24.6345 116.888 24.6345C106.966 24.6345 108.479 19.9068 108.999 18.531C109.845 16.3003 113.461 12.5521 122.572 12.5521C131.809 12.5521 131.118 16.9797 130.461 18.6556ZM123.332 9.06445C114.923 9.06445 107.194 12.1162 104.743 18.5933C102.293 25.0704 107.714 28.1221 116.123 28.1221C124.531 28.1221 132.26 25.0704 134.711 18.5933C137.162 12.1162 131.746 9.06445 123.332 9.06445Z" fill="black"/>
<path d="M70.5773 17.4497L69.9832 19.1086C68.4866 23.287 66.4415 24.023 62.6884 24.023H48.7672L52.7145 12.9881H67.6297C69.5891 12.9881 70.6287 13.2656 70.9886 13.894C71.3485 14.4999 71.2057 15.6945 70.5773 17.4497ZM75.1301 11.8614C74.0219 9.95341 71.3028 9.56274 67.5611 9.56274H49.4641L43.0662 27.4484H61.5859C69.0749 27.4484 72.2282 25.3422 74.576 18.7802C75.7985 15.3661 75.9641 13.2939 75.1301 11.8614Z" fill="black"/>
<path d="M99.1452 9.56274L94.6152 22.2282C94.0611 23.7796 92.9815 24.2042 89.6054 24.2042H84.4642C83.7559 24.2042 81.5908 24.2042 81.2995 23.706C81.2367 23.5984 81.191 23.2644 81.5737 22.1943L82.4191 19.8276H78.1234L77.2894 22.166C76.7695 23.6154 76.7753 24.7591 77.2951 25.6593C78.0891 27.0238 80.0142 27.6296 83.5445 27.6296H89.137C94.341 27.6296 97.4657 26.786 99.0481 22.3528L103.618 9.56841H99.1452V9.56274Z" fill="black"/>
<path d="M139.378 11.25H138.95V10.5592H139.641C139.989 10.5592 140.281 10.5819 140.281 10.9272C140.286 11.3122 139.755 11.25 139.378 11.25ZM140.692 10.8933C140.692 10.3044 140.241 10.1572 139.721 10.1572H138.555V12.9315H138.955V11.6519H139.475L140.201 12.9315H140.646L139.966 11.6519C140.315 11.6293 140.692 11.4368 140.692 10.8933Z" fill="black"/>
<path d="M139.504 13.5769C138.378 13.5769 137.424 12.688 137.424 11.516C137.424 10.361 138.373 9.46078 139.504 9.46078C140.64 9.46078 141.6 10.361 141.6 11.516C141.6 12.688 140.64 13.5769 139.504 13.5769ZM139.504 9.06445C138.127 9.06445 137.019 10.1572 137.019 11.516C137.019 12.8975 138.127 13.9902 139.504 13.9902C140.898 13.9902 142 12.8975 142 11.516C142 10.1572 140.898 9.06445 139.504 9.06445Z" fill="black"/>
</g>
<defs>
<clipPath id="clip0_1101_47">
<rect width="142" height="37" fill="white"/>
</clipPath>
</defs>
</svg>
