<svg width="25" height="25" viewBox="0 0 25 25" fill="none" xmlns="http://www.w3.org/2000/svg">
<path d="M18.2001 12.0001L19.7001 16.1001H22.7001C23.0001 16.1001 23.3001 16.3001 23.4001 16.6001C23.5001 16.9001 23.4001 17.2001 23.2001 17.4001L20.6001 19.2001L22.0001 22.5001C22.1001 22.8001 22.0001 23.2001 21.8001 23.4001C21.5001 23.6001 21.2001 23.7001 20.9001 23.5001L17.4001 21.5001L13.9001 23.5001C13.6001 23.7001 13.2001 23.6001 13.0001 23.4001C12.7001 23.2001 12.7001 22.8001 12.8001 22.5001L14.2001 19.2001L11.6001 17.4001C11.4001 17.2001 11.3001 16.9001 11.4001 16.6001C11.5001 16.3001 11.8001 16.1001 12.1001 16.1001H15.1001L16.6001 12.0001C16.7001 11.7001 17.0001 11.6001 17.3001 11.6001C17.8001 11.6001 18.1001 11.7001 18.2001 12.0001Z" stroke="white" stroke-width="1.5" stroke-linecap="round" stroke-linejoin="round"/>
<path d="M5.5 10.8H12.3" stroke="white" stroke-width="1.5" stroke-linecap="round" stroke-linejoin="round"/>
<path d="M5.5 14.6001H7.7" stroke="white" stroke-width="1.5" stroke-linecap="round" stroke-linejoin="round"/>
<path d="M5.5 18.3H7.7" stroke="white" stroke-width="1.5" stroke-linecap="round" stroke-linejoin="round"/>
<path d="M9.3 23.6H2.5C1.7 23.6 1 22.9 1 22.1V6.29999C1 5.49999 1.7 4.79999 2.5 4.79999H6.3C6.3 2.69999 8.00001 1 10.1 1C12.2 1 13.9 2.69999 13.9 4.79999H17.7C18.5 4.79999 19.2 5.49999 19.2 6.29999V8.5" stroke="white" stroke-width="1.5" stroke-linecap="round" stroke-linejoin="round"/>
<path d="M10.0001 4.1001C10.2001 4.1001 10.4001 4.30012 10.4001 4.50012C10.4001 4.70012 10.2001 4.90009 10.0001 4.90009C9.80009 4.90009 9.6001 4.70012 9.6001 4.50012C9.7001 4.20012 9.80009 4.1001 10.0001 4.1001Z" stroke="white" stroke-width="1.5" stroke-linecap="round" stroke-linejoin="round"/>
</svg>
